<?xml version="1.0" encoding="utf-8"?>
<!-- Generator: Adobe Illustrator 16.0.0, SVG Export Plug-In . SVG Version: 6.00 Build 0)  -->
<!DOCTYPE svg PUBLIC "-//W3C//DTD SVG 1.1//EN" "http://www.w3.org/Graphics/SVG/1.1/DTD/svg11.dtd">
<svg version="1.1" id="Layer_1" xmlns="http://www.w3.org/2000/svg" xmlns:xlink="http://www.w3.org/1999/xlink" x="0px" y="0px"
	 width="850.391px" height="566.93px" viewBox="0 0 850.391 566.93" enable-background="new 0 0 850.391 566.93"
	 xml:space="preserve">
<g>
	<path fill="#428BCA" d="M624.796,82.455c-110.238-110.238-288.962-110.238-399.202,0
		c-110.226,110.229-110.239,288.965-0.002,399.196c110.237,110.237,288.97,110.233,399.203-0.002
		C735.031,371.417,735.031,192.687,624.796,82.455z M287.472,102.058c87.736-87.733,229.983-87.737,317.721,0.003
		c87.729,87.731,87.729,229.98,0,317.712C517.459,507.506,199.74,189.787,287.472,102.058z"/>
	<path fill="#428BCA" d="M510.235,197.005c-47.939-47.938-125.667-47.938-173.605,0c-7.332,7.336-13.532,15.37-18.62,23.882
		c38.728,62.774,105.572,129.62,168.346,168.347c8.511-5.087,16.549-11.284,23.879-18.613
		C558.176,322.671,558.176,244.951,510.235,197.005z"/>
</g>
</svg>
